<svg width="36" height="36" viewBox="0 0 36 36" fill="none" xmlns="http://www.w3.org/2000/svg">
<path d="M6.38439 24.8906C4.70939 22.0646 4.12349 18.7244 4.73669 15.4971C5.3499 12.2697 7.12003 9.37717 9.71478 7.36245C12.3095 5.34772 15.5505 4.34939 18.8291 4.55486C22.1078 4.76034 25.1987 6.15549 27.5216 8.4784C29.8445 10.8013 31.2397 13.8922 31.4451 17.1709C31.6506 20.4495 30.6523 23.6905 28.6376 26.2852C26.6228 28.88 23.7303 30.6501 20.5029 31.2633C17.2756 31.8765 13.9354 31.2906 11.1094 29.6156V29.6156L6.44064 30.9375C6.24936 30.9934 6.04655 30.9969 5.85347 30.9475C5.66039 30.8981 5.48415 30.7977 5.34323 30.6568C5.20231 30.5158 5.10189 30.3396 5.0525 30.1465C5.00311 29.9535 5.00657 29.7506 5.06251 29.5594L6.38439 24.8906Z" stroke="white" stroke-width="2" stroke-linecap="round" stroke-linejoin="round"/>
<path d="M13.5 15.75H22.5" stroke="white" stroke-width="2" stroke-linecap="round" stroke-linejoin="round"/>
<path d="M13.5 20.25H22.5" stroke="white" stroke-width="2" stroke-linecap="round" stroke-linejoin="round"/>
</svg>
