<svg width="42" height="42" viewBox="0 0 42 42" fill="none" xmlns="http://www.w3.org/2000/svg">
<path fill-rule="evenodd" clip-rule="evenodd" d="M21 16.625C21 14.2088 22.9588 12.25 25.375 12.25C27.7912 12.25 29.75 14.2088 29.75 16.625C29.75 19.0412 27.7912 21 25.375 21C22.9588 21 21 19.0412 21 16.625ZM25.375 15.75C24.8918 15.75 24.5 16.1418 24.5 16.625C24.5 17.1082 24.8918 17.5 25.375 17.5C25.8582 17.5 26.25 17.1082 26.25 16.625C26.25 16.1418 25.8582 15.75 25.375 15.75Z" fill="#C0C0C0"/>
<path fill-rule="evenodd" clip-rule="evenodd" d="M5.25 14C5.25 9.16751 9.16751 5.25 14 5.25H28C32.8325 5.25 36.75 9.16751 36.75 14V28C36.75 32.8324 32.8325 36.75 28 36.75H14C9.16751 36.75 5.25 32.8325 5.25 28V26.2503C5.25 26.2505 5.25 26.2501 5.25 26.2503V14ZM8.75 26.9748V28C8.75 30.8995 11.1005 33.25 14 33.25H28C30.2859 33.25 32.2306 31.7891 32.9513 29.75H24.9246C23.0681 29.75 21.2876 29.0125 19.9749 27.6997L16.4749 24.1997C15.108 22.8329 12.892 22.8329 11.5251 24.1997L8.75 26.9748ZM33.25 26.25H24.9246C23.9964 26.25 23.1061 25.8812 22.4497 25.2248L18.9497 21.7248C16.2161 18.9912 11.7839 18.9912 9.05025 21.7248L8.75 22.0251V14C8.75 11.1005 11.1005 8.75 14 8.75H28C30.8995 8.75 33.25 11.1005 33.25 14V26.25Z" fill="#C0C0C0"/>
</svg>
